# xmcd CD database file
#
# Track frame offsets:
#	150
#	13629
#	35386
#	54325
#	74774
#	94030
#	123889
#	142071
#	169993
#	185681
#	207643
#	228150
#	250461
#	272332
#	288653
#	313307
#
# Disc length: 4402 seconds
#
# Revision: 0
# Processed by: cddbd v1.5.1PL2 Copyright (c) Steve Scherf et al.
# Submitted via: CDex 1.70beta1
#
DISCID=f6113010
DTITLE=Wartburg College Castle Singers - Knightliters Jazz Band  - 2001 Concert Tour
DYEAR=2001
DGENRE=Jazz
TTITLE0=Don't Get Around Much Anymore
TTITLE1=Rotten Kid
TTITLE2=Sound Over All Waters
TTITLE3=Back Bone
TTITLE4=St. Louis Blues
TTITLE5=Open Wide
TTITLE6=And So It Goes
TTITLE7=Groove Merchant
TTITLE8=Scat Blues in C
TTITLE9=Whirly Bird
TTITLE10='Till There Was You
TTITLE11=Birdland
TTITLE12=I Remember Clifford
TTITLE13=Sunny
TTITLE14=The Raven Speaks
TTITLE15=It Had To Be You
EXTD=YEAR: 2001
EXTT0=
EXTT1=
EXTT2=
EXTT3=
EXTT4=
EXTT5=
EXTT6=
EXTT7=
EXTT8=
EXTT9=
EXTT10=
EXTT11=
EXTT12=
EXTT13=
EXTT14=
EXTT15=
PLAYORDER=
